<?xml version="1.0" encoding="utf-8"?>
<!-- Generator: Adobe Illustrator 24.1.3, SVG Export Plug-In . SVG Version: 6.00 Build 0)  -->
<svg version="1.1" id="Layer_1" xmlns="http://www.w3.org/2000/svg" xmlns:xlink="http://www.w3.org/1999/xlink" x="0px" y="0px"
	 viewBox="0 0 448 448" style="enable-background:new 0 0 448 448;" xml:space="preserve">
<style type="text/css">
	.st0{fill:#000056;}
</style>
<path class="st0" d="M383.9,0h-320c-35.3,0-64,28.7-64,64v320c0,35.3,28.6,64,64,64h320c35.4,0,64-28.7,64-64V64
	C447.9,28.7,419.2,0,383.9,0z M345.5,200.3l-104,112c-4.6,4.9-10.9,7.7-17.6,7.7s-13-2.8-17.6-7.7l-104-112
	c-6.5-7-8.2-17.2-4.4-25.9c3.8-8.7,12.5-14.4,22-14.4h208c9.5,0,18.2,5.7,21.1,14.4C353.7,183.2,352,193.3,345.5,200.3z"/>
</svg>
