<?xml version="1.0" encoding="utf-8"?>
<!-- Generator: Adobe Illustrator 24.1.3, SVG Export Plug-In . SVG Version: 6.00 Build 0)  -->
<svg version="1.1" id="Layer_1" xmlns="http://www.w3.org/2000/svg" xmlns:xlink="http://www.w3.org/1999/xlink" x="0px" y="0px"
	 viewBox="0 0 448 448" style="enable-background:new 0 0 448 448;" xml:space="preserve">
<style type="text/css">
	.st0{fill:#90EE90;}
</style>
<path class="st0" d="M384,0H64C28.6,0,0,28.7,0,64v320c0,35.3,28.6,64,64,64h320c35.4,0,64-28.7,64-64V64C448,28.7,419.3,0,384,0z
	 M312.3,241.6l-112,104c-4.5,4.2-10.4,6.4-16.3,6.4c-3.3,0-6.5-0.7-9.6-2c-8.7-3.8-14.4-12.5-14.4-22V120c0-9.5,5.7-18.2,14.4-22
	c8.8-3.8,18.9-2.1,25.9,4.4l112,104c4.9,3.7,7.6,10.9,7.6,17.6C320,230.7,317.2,237,312.3,241.6z"/>
</svg>
