<?xml version="1.0" encoding="utf-8"?>
<!-- Generator: Adobe Illustrator 24.1.3, SVG Export Plug-In . SVG Version: 6.00 Build 0)  -->
<svg version="1.1" id="Layer_1" xmlns="http://www.w3.org/2000/svg" xmlns:xlink="http://www.w3.org/1999/xlink" x="0px" y="0px"
	 viewBox="0 0 448 448" style="enable-background:new 0 0 448 448;" xml:space="preserve">
<style type="text/css">
	.st0{fill:#90EE90;}
</style>
<path class="st0" d="M384,0H64C28.6,0,0,28.7,0,64v320c0,35.3,28.6,64,64,64h320c35.4,0,64-28.7,64-64V64C448,28.7,419.3,0,384,0z
	 M349.1,273.6c-2.9,8.7-11.6,14.4-21.1,14.4H120c-9.5,0-18.2-5.7-22-14.4c-3.8-8.8-2.1-18.9,4.4-25.9l104-112
	c9.1-9.8,26.1-9.8,35.2,0l104,112C352.1,254.7,353.8,264.8,349.1,273.6z"/>
</svg>
